<?xml version="1.0" encoding="utf-8"?>
<!-- Generator: Adobe Illustrator 17.0.0, SVG Export Plug-In . SVG Version: 6.00 Build 0)  -->
<!DOCTYPE svg PUBLIC "-//W3C//DTD SVG 1.1//EN" "http://www.w3.org/Graphics/SVG/1.1/DTD/svg11.dtd">
<svg version="1.1" id="Layer_1" xmlns="http://www.w3.org/2000/svg" xmlns:xlink="http://www.w3.org/1999/xlink" x="0px" y="0px"
	 width="225px" height="207px" viewBox="0 0 225 207" enable-background="new 0 0 225 207" xml:space="preserve">
<g>
	<rect x="148.5" y="85.5" fill="#FF6666" width="36" height="72"/>
	<rect x="40.5" y="49.5" fill="#FF6666" width="36" height="72"/>
	<rect x="40.5" y="121.5" fill="#BF4D4D" width="36" height="36"/>
	<rect x="148.5" y="49.5" fill="#BF4D4D" width="36" height="36"/>
	<g>
		<polygon fill="#373435" points="211.5,13.5 148.5,13.5 148.5,49.5 211.5,49.5 193.5,31.5 		"/>
		<circle fill="none" stroke="#FFFFFF" stroke-width="2" stroke-miterlimit="10" cx="171" cy="31.5" r="4.5"/>
		<polygon fill="#FF6666" points="202.5,31.5 220.5,40.5 216,31.5 220.5,22.5 		"/>
	</g>
	<g>
		<polygon fill="#373435" points="211.5,157.5 148.5,157.5 148.5,193.5 211.5,193.5 193.5,175.5 		"/>
		<circle fill="none" stroke="#FFFFFF" stroke-width="2" stroke-miterlimit="10" cx="171" cy="175.5" r="4.5"/>
		<polygon fill="#FF6666" points="202.5,175.5 220.5,184.5 216,175.5 220.5,166.5 		"/>
	</g>
	<g>
		<polygon fill="#373435" points="13.5,13.5 76.5,13.5 76.5,49.5 13.5,49.5 31.5,31.5 		"/>
		<circle fill="none" stroke="#FFFFFF" stroke-width="2" stroke-miterlimit="10" cx="54" cy="31.5" r="4.5"/>
		<polygon fill="#FF6666" points="22.5,31.5 4.5,40.5 9,31.5 4.5,22.5 		"/>
	</g>
	<g>
		<polygon fill="#373435" points="13.5,157.5 76.5,157.5 76.5,193.5 13.5,193.5 31.5,175.5 		"/>
		<circle fill="none" stroke="#FFFFFF" stroke-width="2" stroke-miterlimit="10" cx="54" cy="175.5" r="4.5"/>
		<polygon fill="#FF6666" points="22.5,175.5 4.5,184.5 9,175.5 4.5,166.5 		"/>
	</g>
	<rect x="40.5" y="85.5" fill="#FF6666" width="144" height="36"/>
</g>
</svg>
